PathFileType	4	(X/Y/Z)	RBDS013\RBDS013runT25.trc
DataRate	CameraRate	NumFrames	NumMarkers	Units	OrigDataRate	OrigDataStartFrame	OrigNumFrames
150.000000	150.000000	4	33	mm	150.000000	0	4500
Frame#	Time	L.ASIS			L.Heel.Bottom			L.Heel.Lateral			L.Heel.Top			L.Iliac.Crest			L.MT1			L.MT5			L.PSIS			L.Shank.Bottom.Lateral			L.Shank.Bottom.Medial			L.Shank.Top.Lateral			L.Shank.Top.Medial			L.Thigh.Bottom.Lateral			L.Thigh.Bottom.Medial			L.Thigh.Top.Lateral			L.Thigh.Top.Medial			R.ASIS			R.ASY			R.Heel.Bottom			R.Heel.Lateral			R.Heel.Top			R.Iliac.Crest			R.MT1			R.MT5			R.PSIS			R.Shank.Bottom.Lateral			R.Shank.Bottom.Medial			R.Shank.Top.Lateral			R.Shank.Top.Medial			R.Thigh.Bottom.Lateral			R.Thigh.Bottom.Medial			R.Thigh.Top.Lateral			R.Thigh.Top.Medial			
		X1	Y1	Z1	X2	Y2	Z2	X3	Y3	Z3	X4	Y4	Z4	X5	Y5	Z5	X6	Y6	Z6	X7	Y7	Z7	X8	Y8	Z8	X9	Y9	Z9	X10	Y10	Z10	X11	Y11	Z11	X12	Y12	Z12	X13	Y13	Z13	X14	Y14	Z14	X15	Y15	Z15	X16	Y16	Z16	X17	Y17	Z17	X18	Y18	Z18	X19	Y19	Z19	X20	Y20	Z20	X21	Y21	Z21	X22	Y22	Z22	X23	Y23	Z23	X24	Y24	Z24	X25	Y25	Z25	X26	Y26	Z26	X27	Y27	Z27	X28	Y28	Z28	X29	Y29	Z29	X30	Y30	Z30	X31	Y31	Z31	X32	Y32	Z32	X33	Y33	Z33	

1	0	2246.126758567442	923.4816257524062	918.0839104108782	1981.599057743076	255.397433692972	959.4763143511686	2015.962424337217	256.7318777660632	918.8123396706708	2018.887862179773	284.7047638447857	959.6664582075279	2193.712681420793	998.3933157322135	879.2372746846853	2150.624154297067	133.0615544615151	995.9187686582845	2120.640360163186	139.8788511989766	889.958058927469	2088.285508122127	980.8338154058684	973.7207075489534	2122.696100121219	313.3337868618242	907.2531888576844	2091.564582132924	340.6195733204167	943.7486013804516	2169.917218412693	377.9098897452966	899.7239374259759	2140.440311635966	405.2070023996405	935.4603528425489	2344.605050258342	626.4220922374968	880.8671714157282	2281.048625419739	592.3336993497398	894.6967823326681	2287.643360953334	718.0714557713985	859.945397001362	2228.093862459804	686.5598628758157	873.0821849660301	2242.069758452931	918.9398485847472	1151.562064869719	1958.509741260323	87.00069136243104	1077.707138205492	1774.743036433537	130.477943999477	1045.655511768561	1800.507931707323	134.998479680641	1089.021155905441	1806.673291668535	169.6310775109816	1050.341818871642	2206.842468471967	987.4336812214609	1177.287350239678	1959.535294109732	49.53621260787915	1029.023044618743	1923.24216432142	49.0218900392958	1132.719418854934	2084.772563680436	981.8130459927395	1073.860147624436	1883.875240894963	217.3415115727278	1113.333059225643	1856.342385936107	238.4405489276834	1074.982544833705	1913.595605548478	294.9585704299019	1131.659652223527	1882.883912226567	313.0989904760563	1091.670079691597	2091.330125596025	615.2627089664884	1176.593838689833	2037.094217337091	628.1962360462626	1128.68936228688	2102.133810634137	723.29052225797	1187.732936354246	2050.812661158503	736.3406017383163	1142.435003522255	
2	0.006666666666666667	2247.483689702598	928.5173884457274	917.383797821188	2003.243022747012	234.3037066614495	963.5301794342596	2036.06166627064	238.1671372936777	922.143748836061	2038.01845456907	266.1774661910462	963.1069519048021	2195.329010226544	1004.838413333453	879.104134432745	2180.574977777303	125.5047300670245	995.3728961801847	2147.8085555364	130.1314758074377	890.1996100256958	2089.939827335067	986.3685351001935	973.6634060295563	2137.820478476807	302.4003181348851	909.0793335137081	2105.925984006596	327.1270713702907	946.5975030220933	2179.74434554014	369.9801001890374	901.3077257500762	2149.649519386209	394.6502807504431	938.1628637408041	2345.363146638918	630.7750076686424	881.9221717289309	2281.814122636749	596.7511478079393	895.3953835364421	2288.547946596395	722.4778867929422	860.6695982690993	2228.89848049157	691.0359218377135	873.5596658674834	2244.383923962515	922.8575454253383	1149.79641071954	1947.107423538233	91.63763825863562	1078.623835345525	1765.437695299578	142.3251633260653	1046.986928693967	1791.482454059558	145.5402593896015	1090.3441525867	1798.732607409745	180.0659123881437	1051.715829137461	2210.792568598858	992.5310218681469	1175.906548679423	1947.352109022602	53.0468759864269	1030.151263380432	1910.850334922695	54.0967108959574	1133.470577371854	2087.135249527491	987.0583291288839	1074.05589652304	1874.838227777296	225.0158311316409	1114.188021881315	1847.579809722317	245.9367024566799	1075.56948804146	1904.831022030187	302.6820413473105	1132.014804533615	1874.363521178521	320.6717053420089	1091.716317066776	2085.798056561692	622.1783150444484	1175.964250557195	2032.215865292131	636.4089481859883	1127.618735868703	2099.506814366284	729.8546100818078	1187.035411197438	2048.94063346082	744.0878237493312	1141.206459826444	
3	0.01333333333333333	2248.81364431995	933.3932274388338	916.6819316368093	2025.052361421634	213.5281456061957	967.4619274805524	2056.33447835834	219.8799099073381	925.3828690466922	2057.292409628227	247.9028031019515	966.4580119340559	2196.908830319761	1011.118567878085	878.9637245067862	2210.368404009565	118.2943013869768	994.898539429113	2174.964087984623	120.7041502431655	890.4726081585462	2091.587837927691	991.757488504422	973.5945697477582	2152.982687466356	291.5915825342552	910.8609298985415	2120.382476866294	313.788275480377	949.3888367991259	2189.621092192066	362.0478719169032	902.8375360487977	2158.953001921426	384.1337216156297	940.7885202078439	2345.886346524599	634.7706425891491	882.8968209846944	2282.322978216547	600.870610076426	896.074699326221	2289.282510506415	726.5670905974928	861.326022781825	2229.515161924213	695.2493049833552	874.017009252719	2246.629771143817	926.7053189531915	1148.081079748578	1935.537457647409	96.48298413563229	1079.576281033789	1756.060741099553	154.2585732181037	1048.117608613512	1782.308060249549	156.2202381637183	1091.497230908153	1790.693650845672	190.601469409199	1052.92389049349	2214.62036022156	997.5075024794031	1174.552403201834	1935.042283162769	56.80666398933752	1031.31331911554	1898.243370953822	59.44201160083851	1134.217095444112	2089.447379107845	992.1953614038787	1074.234502256353	1865.763134978111	232.8124856730164	1114.967991210588	1838.835132616326	253.6023485631466	1076.080810858921	1896.14632400258	310.4593026807141	1132.332910035533	1865.973212714709	328.3500008974731	1091.723689718029	2080.565193645052	628.9041916791099	1175.372271475611	2027.603706847266	644.3684541003603	1126.610378369819	2097.052056926938	736.2431792421147	1186.363920398684	2047.200161562995	751.6003469161071	1140.035357800918	
4	0.02	2250.090247057505	937.9670889691084	915.9812581969823	2047.238424343397	193.369272122701	971.165353497493	2076.996511649247	202.1297246169268	928.4480947803448	2076.885014590552	230.1156425172409	969.6342607035467	2198.421882189092	1017.077379259422	878.8082806872565	2239.887434281903	111.8242982724205	994.5708289506908	2202.147985527003	111.9425088980787	890.820669275955	2093.222066075446	996.8749607731991	973.499288245401	2168.249894092987	281.0464916809471	912.5563206123242	2135.045757050822	300.7635857099532	952.0607703872927	2199.615834728463	354.1305497613632	904.2597242475781	2168.452152606442	373.7069984815594	943.2556236966027	2345.952886685262	638.0975320799216	883.7123166764484	2282.333640309081	604.436156542553	896.7111006251343	2289.686558637371	730.0643301602844	861.8486849460934	2229.768083980844	698.9763839733292	874.43326663832	2248.746143012461	930.4281641593265	1146.464180370856	1923.629071432684	101.7229464269018	1080.600420677071	1746.51917120533	166.3564407455263	1048.860913264481	1772.826869083696	167.166941486954	1092.32103234648	1782.44281604973	201.3290026813053	1053.809491610329	2218.209517607832	1002.265586480853	1173.248690072819	1922.464527978392	61.03136884447743	1032.544773938166	1885.202960482901	65.30559791475503	1134.959283143989	2091.665335597682	997.1371833810877	1074.371744257761	1856.590998024033	240.8495392836969	1115.600769866337	1830.101281549736	261.5914138878459	1076.438004440123	1887.593912311128	318.3491332035529	1132.569975237757	1857.809747206682	336.2339300959828	1091.64364345877	2075.900945490587	635.2728593237457	1174.855793929675	2023.495394328485	651.8494975758709	1125.726249097213	2094.922582839361	742.3023682130363	1185.743902747388	2045.706567835273	758.6702811199184	1138.974501642773	
